<svg width="96" height="96" viewBox="0 0 96 96" version="1.1" xmlns="http://www.w3.org/2000/svg" xmlns:xlink="http://www.w3.org/1999/xlink">
<title>Rover96</title>
<desc>Created using Figma</desc>
<g id="Canvas" transform="translate(947 1343)">
<g id="Rover96">
<g id="Rectangle 2">
<use xlink:href="#path0_fill" transform="translate(-931 -1343)" fill="#2D9CDB"/>
</g>
<g id="Wheel">
<g id="Ellipse">
<use xlink:href="#path1_fill" transform="translate(-947 -1279)" fill="#333333"/>
</g>
<g id="Ellipse 2.1">
<use xlink:href="#path2_fill" transform="translate(-936.333 -1268.33)" fill="#C4C4C4"/>
</g>
</g>
<g id="Wheel">
<g id="Ellipse">
<use xlink:href="#path1_fill" transform="translate(-915 -1279)" fill="#333333"/>
</g>
<g id="Ellipse 2.1">
<use xlink:href="#path2_fill" transform="translate(-904.333 -1268.33)" fill="#C4C4C4"/>
</g>
</g>
<g id="Wheel">
<g id="Ellipse">
<use xlink:href="#path1_fill" transform="translate(-883 -1279)" fill="#333333"/>
</g>
<g id="Ellipse 2.1">
<use xlink:href="#path2_fill" transform="translate(-872.333 -1268.33)" fill="#C4C4C4"/>
</g>
</g>
<g id="Rectangle 3">
<use xlink:href="#path3_fill" transform="translate(-899 -1321.67)" fill="#C4C4C4"/>
</g>
</g>
</g>
<defs>
<path id="path0_fill" d="M 0 0L 64 0L 64 80L 0 80L 0 0Z"/>
<path id="path1_fill" d="M 32 16C 32 24.8366 24.8366 32 16 32C 7.16344 32 0 24.8366 0 16C 0 7.16344 7.16344 0 16 0C 24.8366 0 32 7.16344 32 16Z"/>
<path id="path2_fill" d="M 10.6667 5.33333C 10.6667 8.27885 8.27885 10.6667 5.33333 10.6667C 2.38781 10.6667 0 8.27885 0 5.33333C 0 2.38781 2.38781 0 5.33333 0C 8.27885 0 10.6667 2.38781 10.6667 5.33333Z"/>
<path id="path3_fill" d="M 0 0L 32 0L 32 27L 0 27L 0 0Z"/>
</defs>
</svg>

