<svg width="48" height="48" viewBox="0 0 48 48" version="1.1" xmlns="http://www.w3.org/2000/svg" xmlns:xlink="http://www.w3.org/1999/xlink">
<title>Rover48</title>
<desc>Created using Figma</desc>
<g id="Canvas" transform="translate(699 1343)">
<g id="Rover48">
<g id="Rectangle 2">
<use xlink:href="#path0_fill" transform="translate(-691 -1343)" fill="#2D9CDB"/>
</g>
<g id="Wheel">
<g id="Ellipse">
<use xlink:href="#path1_fill" transform="translate(-699 -1311)" fill="#333333"/>
</g>
<g id="Ellipse 2.1">
<use xlink:href="#path2_fill" transform="translate(-693.667 -1305.67)" fill="#C4C4C4"/>
</g>
</g>
<g id="Wheel">
<g id="Ellipse">
<use xlink:href="#path1_fill" transform="translate(-683 -1311)" fill="#333333"/>
</g>
<g id="Ellipse 2.1">
<use xlink:href="#path2_fill" transform="translate(-677.667 -1305.67)" fill="#C4C4C4"/>
</g>
</g>
<g id="Wheel">
<g id="Ellipse">
<use xlink:href="#path1_fill" transform="translate(-667 -1311)" fill="#333333"/>
</g>
<g id="Ellipse 2.1">
<use xlink:href="#path2_fill" transform="translate(-661.667 -1305.67)" fill="#C4C4C4"/>
</g>
</g>
<g id="Rectangle 3">
<use xlink:href="#path3_fill" transform="translate(-675 -1332.33)" fill="#C4C4C4"/>
</g>
</g>
</g>
<defs>
<path id="path0_fill" d="M 0 0L 32 0L 32 40L 0 40L 0 0Z"/>
<path id="path1_fill" d="M 16 8C 16 12.4183 12.4183 16 8 16C 3.58172 16 0 12.4183 0 8C 0 3.58172 3.58172 0 8 0C 12.4183 0 16 3.58172 16 8Z"/>
<path id="path2_fill" d="M 5.33333 2.66667C 5.33333 4.13943 4.13943 5.33333 2.66667 5.33333C 1.19391 5.33333 0 4.13943 0 2.66667C 0 1.19391 1.19391 0 2.66667 0C 4.13943 0 5.33333 1.19391 5.33333 2.66667Z"/>
<path id="path3_fill" d="M 0 0L 16 0L 16 13.5L 0 13.5L 0 0Z"/>
</defs>
</svg>

